<?xml version="1.0" standalone="no"?>
<!DOCTYPE svg PUBLIC "-//W3C//DTD SVG 20010904//EN"
 "http://www.w3.org/TR/2001/REC-SVG-20010904/DTD/svg10.dtd">
<svg version="1.0" xmlns="http://www.w3.org/2000/svg"
 width="500.000000pt" height="500.000000pt" viewBox="0 0 500.000000 500.000000"
 preserveAspectRatio="xMidYMid meet">
<metadata>
Created by potrace 1.14, written by Peter Selinger 2001-2017
</metadata>
<g transform="translate(0.000000,500.000000) scale(0.100000,-0.100000)"
fill="#000000" stroke="none">
<path d="M2010 3733 c-19 -7 -40 -33 -40 -50 0 -7 9 -22 20 -33 19 -19 33 -20
493 -20 454 0 475 1 491 19 10 11 16 30 14 42 -6 47 -23 49 -508 48 -250 0
-462 -3 -470 -6z m945 -48 c0 -20 -8 -20 -469 -23 -285 -1 -474 2 -479 7 -5 5
-7 17 -4 25 6 15 56 16 479 14 465 -3 473 -3 473 -23z"/>
<path d="M1931 3459 c-39 -89 -71 -175 -71 -190 0 -45 46 -89 100 -97 l45 -6
-35 -6 -35 -5 -3 -260 -2 -261 -33 -9 c-25 -8 -32 -15 -32 -35 l0 -25 278 -3
278 -2 -3 265 c-2 146 0 265 5 265 4 0 7 -119 7 -264 l0 -265 225 0 226 -1 -3
67 -3 68 -168 0 c-92 0 -167 3 -167 8 0 4 79 7 175 7 l175 0 0 -75 0 -75 99 0
c71 0 102 4 110 14 18 21 2 45 -35 52 l-34 6 0 264 0 264 -32 1 c-32 1 -31 2
9 10 46 11 88 47 97 85 5 18 -13 69 -67 192 l-75 167 -112 3 -112 3 6 -43 5
-43 -11 43 -11 42 -118 0 -119 0 0 -184 0 -184 39 -31 c21 -17 49 -35 62 -40
16 -7 19 -10 7 -10 -9 -1 -38 15 -64 35 -51 39 -54 39 -123 -11 -19 -14 -41
-25 -50 -25 -9 0 2 9 24 19 22 11 52 31 68 46 l27 26 -2 177 -3 177 -120 0
c-119 0 -119 0 -126 -25 l-7 -25 -1 28 -1 27 -109 0 -109 0 -71 -161z m283 57
c-3 -21 -8 -35 -11 -32 -2 2 -1 20 3 40 3 21 8 35 11 32 2 -2 1 -20 -3 -40z
m554 -51 c0 -16 -2 -15 -8 5 -4 14 -8 34 -8 45 0 16 2 15 8 -5 4 -14 8 -34 8
-45z m-574 -39 c-3 -21 -8 -35 -11 -32 -2 2 -1 20 3 40 3 21 8 35 11 32 2 -2
1 -20 -3 -40z m594 -51 c0 -16 -2 -15 -8 5 -4 14 -8 34 -8 45 0 16 2 15 8 -5
4 -14 8 -34 8 -45z m-618 -62 l-12 -58 41 -37 c30 -26 57 -39 94 -46 29 -5 41
-10 27 -11 -44 -2 -95 18 -125 49 -16 16 -33 30 -38 30 -4 0 -28 -13 -51 -29
-24 -17 -56 -32 -72 -35 l-29 -6 30 11 c17 7 49 25 71 40 38 26 43 34 54 94 7
36 15 64 17 61 3 -2 -1 -31 -7 -63z m664 -72 c10 -11 41 -32 69 -46 28 -14 45
-25 38 -25 -15 0 -68 27 -103 53 l-26 19 -47 -36 c-27 -20 -55 -36 -64 -36 -9
1 -2 7 14 14 17 8 43 27 59 44 25 27 28 36 23 79 l-6 48 12 -47 c7 -25 20 -55
31 -67z m-572 -102 c57 -15 131 2 181 42 l37 30 38 -30 c75 -60 182 -63 257
-6 39 31 38 31 82 0 20 -13 61 -30 90 -36 l53 -12 0 -263 c0 -200 3 -264 13
-267 6 -3 -12 -6 -40 -6 l-53 -1 0 56 c0 97 8 94 -211 94 l-189 0 -10 -26 c-6
-14 -10 -48 -10 -75 0 -42 -3 -49 -20 -49 -19 0 -20 7 -20 253 0 138 -4 258
-8 265 -7 9 -54 12 -203 10 l-194 -3 -3 -262 -2 -263 -58 1 c-31 0 -51 3 -44
6 9 3 12 67 12 267 l0 263 54 12 c30 7 74 25 97 41 l43 28 33 -28 c18 -16 52
-34 75 -41z m406 24 c-10 -2 -26 -2 -35 0 -10 3 -2 5 17 5 19 0 27 -2 18 -5z
m-568 -77 c0 -3 -4 -8 -10 -11 -5 -3 -10 -1 -10 4 0 6 5 11 10 11 6 0 10 -2
10 -4z m290 -261 l0 -235 -135 0 -135 0 0 235 0 235 135 0 135 0 0 -235z m460
-195 l0 -40 -140 0 -140 0 0 40 0 40 140 0 140 0 0 -40z m-927 -37 c-7 -2 -19
-2 -25 0 -7 3 -2 5 12 5 14 0 19 -2 13 -5z m1144 1 c-3 -3 -12 -4 -19 -1 -8 3
-5 6 6 6 11 1 17 -2 13 -5z"/>
<path d="M2474 3107 c-2 -7 -3 -89 -2 -182 l3 -170 229 -3 c139 -1 233 1 239
7 15 15 21 300 8 334 l-11 27 -230 0 c-179 0 -232 -3 -236 -13z m46 -21 c0 -3
-4 -8 -10 -11 -5 -3 -10 -1 -10 4 0 6 5 11 10 11 6 0 10 -2 10 -4z m400 -6 c0
-5 -2 -10 -4 -10 -3 0 -8 5 -11 10 -3 6 -1 10 4 10 6 0 11 -4 11 -10z m0 -292
c0 -5 -94 -8 -210 -8 -115 0 -210 3 -210 8 0 4 95 7 210 7 116 0 210 -3 210
-7z"/>
<path d="M1741 2163 c-52 -27 -74 -64 -79 -131 -5 -69 14 -123 54 -149 29 -18
112 -23 167 -9 26 6 27 9 27 74 0 40 -5 73 -12 80 -7 7 -34 12 -61 12 -47 0
-48 -1 -45 -27 2 -20 9 -29 26 -31 17 -3 22 -10 22 -33 0 -26 -3 -29 -33 -29
-51 0 -72 29 -72 102 0 52 3 63 25 80 24 19 47 20 106 3 15 -5 23 0 31 18 10
22 9 26 -14 36 -48 22 -106 23 -142 4z"/>
<path d="M2290 2162 c-45 -22 -70 -72 -70 -140 0 -103 44 -156 129 -156 58 0
95 24 115 75 35 87 6 197 -58 224 -46 19 -73 19 -116 -3z m102 -64 c7 -13 12
-48 12 -78 0 -70 -16 -100 -53 -100 -43 0 -56 24 -56 100 0 76 13 100 56 100
19 0 32 -7 41 -22z"/>
<path d="M2584 2164 c-97 -48 -96 -249 2 -290 30 -13 45 -13 83 -4 63 15 89
35 74 58 -11 17 -16 18 -87 6 -31 -5 -42 -3 -53 12 -17 23 -17 135 0 158 21
28 59 17 77 -22 11 -27 19 -32 40 -30 19 2 26 10 28 30 5 38 -14 67 -53 84
-43 18 -72 17 -111 -2z"/>
<path d="M3243 2173 c-29 -6 -73 -58 -73 -87 0 -36 29 -67 87 -92 45 -20 54
-28 51 -47 -4 -28 -45 -34 -87 -13 -28 15 -31 15 -45 -6 -9 -12 -16 -26 -16
-30 0 -4 25 -15 56 -24 68 -20 121 -8 153 33 39 49 17 109 -51 138 -24 10 -51
25 -60 33 -37 31 26 57 73 31 24 -12 49 3 49 31 0 13 -13 21 -44 29 -46 11
-54 12 -93 4z"/>
<path d="M1960 2020 l0 -150 35 0 35 0 0 56 c0 51 2 55 21 52 24 -3 31 -13 54
-70 13 -32 20 -38 45 -38 37 0 43 11 25 46 -8 16 -15 34 -15 40 0 6 -7 17 -15
24 -13 11 -12 16 10 42 34 40 33 82 -4 119 -28 27 -34 29 -110 29 l-81 0 0
-150z m140 80 c15 -29 4 -57 -26 -64 -35 -9 -44 0 -44 45 0 37 2 39 30 39 19
0 33 -7 40 -20z"/>
<path d="M2800 2020 l0 -150 35 0 35 0 0 150 0 150 -35 0 -35 0 0 -150z"/>
<path d="M2942 2023 l3 -148 83 -3 c88 -3 112 5 112 39 0 17 -8 19 -68 19
l-69 0 5 29 c4 28 8 30 51 33 42 3 46 5 46 28 0 23 -4 25 -46 28 -43 3 -47 5
-51 33 l-5 29 64 0 63 0 0 30 0 30 -95 0 -96 0 3 -147z"/>
<path d="M1145 1555 c-40 -21 -55 -43 -55 -80 0 -38 27 -66 93 -94 40 -17 48
-25 45 -43 -4 -29 -42 -35 -92 -14 -33 14 -37 14 -46 -4 -15 -29 -12 -37 18
-48 51 -19 83 -23 121 -12 49 13 75 42 75 85 0 44 -25 72 -91 101 -81 36 -65
80 21 56 35 -9 43 -9 54 5 17 23 15 31 -8 43 -36 19 -103 22 -135 5z"/>
<path d="M1352 1434 c3 -123 4 -126 31 -149 36 -31 82 -39 132 -23 60 20 75
57 75 191 l0 107 -34 0 -34 0 -4 -115 c-3 -123 -8 -135 -55 -135 -33 0 -43 29
-43 129 0 110 -4 121 -42 121 l-30 0 4 -126z"/>
<path d="M1650 1410 l0 -150 35 0 c35 0 35 0 35 44 l0 44 43 6 c68 11 97 44
97 111 0 27 -8 44 -29 66 -27 27 -35 29 -105 29 l-76 0 0 -150z m134 67 c13
-36 -2 -61 -38 -65 -25 -3 -26 -2 -26 48 0 50 1 51 27 48 20 -2 30 -11 37 -31z"/>
<path d="M1912 1413 l3 -148 83 -3 c88 -3 112 5 112 39 0 17 -8 19 -65 19
l-65 0 0 29 c0 28 2 30 48 33 43 3 47 5 50 31 3 26 2 27 -47 27 -50 0 -51 1
-51 30 l0 30 60 0 60 0 0 30 0 30 -95 0 -96 0 3 -147z"/>
<path d="M2160 1410 l0 -150 35 0 35 0 0 56 c0 51 2 55 21 52 24 -3 30 -12 53
-70 13 -32 20 -38 45 -38 16 0 32 3 34 8 3 4 -7 33 -22 64 l-28 57 21 21 c32
31 28 96 -7 126 -25 21 -38 24 -108 24 l-79 0 0 -150z m138 62 c3 -27 -1 -34
-23 -42 -41 -16 -45 -13 -45 36 0 45 0 45 33 42 28 -3 32 -7 35 -36z"/>
<path d="M2436 1443 c-4 -65 -9 -133 -13 -150 -5 -32 -4 -33 31 -33 35 0 36 1
36 38 0 20 3 69 7 107 l7 70 20 -85 21 -85 35 0 35 0 21 80 c24 93 34 80 34
-47 l0 -78 36 0 37 0 -6 58 c-4 31 -9 99 -13 150 l-7 92 -47 0 -47 0 -18 -85
c-10 -47 -22 -82 -25 -78 -4 4 -15 43 -24 86 l-17 77 -48 0 -48 0 -7 -117z"/>
<path d="M2820 1423 c-24 -76 -45 -144 -48 -150 -3 -9 7 -13 31 -13 31 0 36 4
42 30 6 28 9 30 56 30 47 0 51 -2 60 -30 9 -25 16 -30 45 -30 19 0 34 3 34 6
0 3 -21 71 -46 150 l-46 144 -42 0 -42 0 -44 -137z m110 -30 c0 -8 -13 -13
-30 -13 -19 0 -28 4 -25 13 2 6 9 32 16 57 l11 45 14 -45 c8 -25 14 -51 14
-57z"/>
<path d="M3080 1410 l0 -150 35 0 35 0 0 56 c0 52 2 55 22 52 16 -2 27 -15 38
-43 8 -22 19 -46 23 -53 8 -12 59 -17 69 -6 6 5 -7 38 -36 95 -11 22 -11 28 5
48 28 34 25 96 -6 126 -22 22 -32 25 -105 25 l-80 0 0 -150z m124 94 c10 -4
16 -18 16 -35 0 -22 -6 -32 -26 -39 -40 -16 -44 -13 -44 35 0 47 12 55 54 39z"/>
<path d="M3350 1410 l0 -150 35 0 35 0 0 65 c0 45 4 65 13 65 24 0 37 -17 55
-71 16 -46 23 -54 47 -57 15 -2 31 0 36 5 11 11 -39 143 -57 150 -9 3 -4 21
22 67 19 35 34 66 34 69 0 4 -15 7 -34 7 -31 0 -36 -5 -62 -55 -41 -77 -54
-78 -54 -5 l0 60 -35 0 -35 0 0 -150z"/>
<path d="M3620 1429 c0 -72 5 -139 10 -150 9 -16 22 -19 95 -19 73 0 86 3 95
19 19 36 12 41 -60 41 l-70 0 0 30 c0 29 1 30 50 30 49 0 50 1 50 30 0 29 -1
30 -50 30 -49 0 -50 1 -50 30 0 29 1 29 63 32 59 3 62 4 65 31 l3 27 -100 0
-101 0 0 -131z"/>
<path d="M3844 1545 c-11 -28 4 -45 41 -45 l35 0 0 -120 0 -120 35 0 35 0 0
120 0 120 28 0 c32 0 52 16 52 42 0 16 -11 18 -110 18 -89 0 -112 -3 -116 -15z"/>
</g>
</svg>
